<svg width="800" height="1000" viewBox="0 0 800 1000" fill="none" xmlns="http://www.w3.org/2000/svg">
  <rect width="800" height="1000" rx="48" fill="url(#bg)"/>
  <circle cx="628" cy="800" r="152" fill="url(#glow)" fill-opacity="0.8"/>
  <circle cx="400" cy="340" r="160" fill="url(#avatar)"/>
  <circle cx="400" cy="340" r="128" stroke="white" stroke-opacity="0.22" stroke-width="20"/>
  <path d="M225 818C225 696.497 323.497 598 445 598H355C476.503 598 575 696.497 575 818V838C575 859.539 557.539 877 536 877H264C242.461 877 225 859.539 225 838V818Z" fill="url(#base)"/>
  <path d="M319.5 289C334.5 227.5 383.5 187 448.5 187C513.5 187 567 226 582.5 289C573 281.167 560.2 274.3 545 268.5C517.5 258 470 253 448.5 253C427 253 379.5 258 352 268.5C340.4 272.932 329.475 279.97 319.5 289Z" fill="#4B2D20"/>
  <text x="400" y="520" text-anchor="middle" fill="rgba(255,249,241,0.95)" font-family="'Noto Serif SC', serif" font-size="120" letter-spacing="24">陆洋帆</text>
  <text x="400" y="582" text-anchor="middle" fill="#6F5C48" font-family="'Outfit', sans-serif" font-size="28" letter-spacing="6">PERSONAL PORTRAIT PLACEHOLDER</text>
  <defs>
    <linearGradient id="bg" x1="68" y1="59" x2="691" y2="944" gradientUnits="userSpaceOnUse">
      <stop stop-color="#F8F1E7"/>
      <stop offset="1" stop-color="#E9D7C5"/>
    </linearGradient>
    <radialGradient id="glow" cx="0" cy="0" r="1" gradientUnits="userSpaceOnUse" gradientTransform="translate(628 800) rotate(90) scale(152)">
      <stop stop-color="#C79B56"/>
      <stop offset="1" stop-color="#C79B56" stop-opacity="0"/>
    </radialGradient>
    <linearGradient id="avatar" x1="300" y1="208" x2="512" y2="472" gradientUnits="userSpaceOnUse">
      <stop stop-color="#9C5A38"/>
      <stop offset="1" stop-color="#44251A"/>
    </linearGradient>
    <linearGradient id="base" x1="289" y1="628" x2="533" y2="921" gradientUnits="userSpaceOnUse">
      <stop stop-color="#8C4B2F"/>
      <stop offset="1" stop-color="#3F2318"/>
    </linearGradient>
  </defs>
</svg>
